<?xml version="1.0" encoding="UTF-8" standalone="no"?>
<!-- Created with Inkscape (http://www.inkscape.org/) -->

<svg
   xmlns:dc="http://purl.org/dc/elements/1.1/"
   xmlns:cc="http://creativecommons.org/ns#"
   xmlns:rdf="http://www.w3.org/1999/02/22-rdf-syntax-ns#"
   xmlns:svg="http://www.w3.org/2000/svg"
   xmlns="http://www.w3.org/2000/svg"
   xmlns:sodipodi="http://sodipodi.sourceforge.net/DTD/sodipodi-0.dtd"
   xmlns:inkscape="http://www.inkscape.org/namespaces/inkscape"
   width="1242.3855"
   height="802.3855"
   viewBox="0 0 1242.3855 802.38551"
   id="svg2"
   version="1.1"
   inkscape:version="0.91 r13725"
   sodipodi:docname="github.svg"
   inkscape:export-filename="/home/joseph/josephch405.github.io/img/github.png"
   inkscape:export-xdpi="90"
   inkscape:export-ydpi="90">
  <defs
     id="defs4" />
  <sodipodi:namedview
     id="base"
     pagecolor="#ffffff"
     bordercolor="#666666"
     borderopacity="1.0"
     inkscape:pageopacity="0.0"
     inkscape:pageshadow="2"
     inkscape:zoom="0.49497475"
     inkscape:cx="628.97321"
     inkscape:cy="358.37562"
     inkscape:document-units="px"
     inkscape:current-layer="layer1"
     showgrid="false"
     units="px"
     inkscape:window-width="1855"
     inkscape:window-height="1056"
     inkscape:window-x="65"
     inkscape:window-y="24"
     inkscape:window-maximized="1"
     inkscape:snap-bbox="true"
     inkscape:snap-bbox-edge-midpoints="true"
     inkscape:snap-bbox-midpoints="true"
     inkscape:bbox-paths="true"
     inkscape:snap-page="true"
     inkscape:object-paths="true"
     inkscape:snap-intersection-paths="true"
     inkscape:object-nodes="true"
     inkscape:snap-smooth-nodes="true"
     inkscape:snap-midpoints="true"
     inkscape:bbox-nodes="true"
     fit-margin-left="220"
     fit-margin-right="220"
     fit-margin-top="0"
     fit-margin-bottom="0" />
  <metadata
     id="metadata7">
    <rdf:RDF>
      <cc:Work
         rdf:about="">
        <dc:format>image/svg+xml</dc:format>
        <dc:type
           rdf:resource="http://purl.org/dc/dcmitype/StillImage" />
        <dc:title></dc:title>
      </cc:Work>
    </rdf:RDF>
  </metadata>
  <g
     inkscape:label="Layer 1"
     inkscape:groupmode="layer"
     id="layer1"
     transform="translate(222.38549,-249.97666)">
    <rect
       style="color:#000000;clip-rule:nonzero;display:inline;overflow:visible;visibility:visible;opacity:1;isolation:auto;mix-blend-mode:normal;color-interpolation:sRGB;color-interpolation-filters:linearRGB;solid-color:#000000;solid-opacity:1;fill:#000000;fill-opacity:1;fill-rule:evenodd;stroke:none;stroke-width:6;stroke-linecap:butt;stroke-linejoin:miter;stroke-miterlimit:4;stroke-dasharray:none;stroke-dashoffset:0;stroke-opacity:1;color-rendering:auto;image-rendering:auto;shape-rendering:auto;text-rendering:auto;enable-background:accumulate"
       id="rect4399"
       width="1242.3855"
       height="802.3855"
       x="-222.38548"
       y="249.97665" />
    <path
       id="path4748"
       d="m 398.80727,409.03066 q 67.54486,0 124.58633,33.28766 57.04147,33.28766 90.32913,90.32914 33.28766,57.04147 33.28766,124.58635 0,81.11847 -47.34604,145.91631 -47.34604,64.79782 -122.32406,89.68277 -8.72589,1.61591 -12.92725,-2.26226 -4.20135,-3.87818 -4.20135,-9.69544 0,-0.96954 0.16159,-24.72336 0.16159,-23.75381 0.16159,-43.46787 0,-31.34857 -16.80542,-45.89173 18.42133,-1.93909 33.12607,-5.81726 14.70474,-3.87818 30.37903,-12.60407 15.67428,-8.72589 26.17767,-21.49155 10.50339,-12.76565 17.12859,-33.93402 6.62522,-21.16837 6.62522,-48.63877 0,-38.45857 -25.53131,-66.57533 11.95771,-29.40949 -2.58544,-65.92896 -9.04908,-2.90863 -26.17768,3.55499 -17.1286,6.46363 -29.73266,14.21997 l -12.28089,7.75635 q -30.05585,-8.40271 -62.05078,-8.40271 -31.99494,0 -62.05079,8.40271 -5.1709,-3.55499 -13.7352,-8.72589 -8.5643,-5.1709 -26.98563,-12.44247 -18.42132,-7.27158 -27.4704,-4.36295 -14.54315,36.51947 -2.58545,65.92896 -25.53131,28.11676 -25.53131,66.57533 0,27.4704 6.62522,48.47718 6.62521,21.00678 16.96701,33.93402 10.3418,12.92725 26.01608,21.65314 15.67429,8.72589 30.37903,12.60407 14.70475,3.87817 33.12607,5.81726 -12.60406,11.63453 -15.83588,33.28767 -6.7868,3.23181 -14.54315,4.84772 -7.75635,1.6159 -18.42132,1.6159 -10.66498,0 -21.16837,-6.94839 -10.50339,-6.9484 -17.93656,-20.19883 -6.14044,-10.3418 -15.67428,-16.80543 -9.53385,-6.46362 -15.99747,-7.75635 l -6.46362,-0.96954 q -6.78681,0 -9.37226,1.45432 -2.58545,1.45431 -1.6159,3.71658 0.96954,2.26227 2.90863,4.52454 1.93908,2.26226 4.20135,3.87817 l 2.26227,1.61591 q 7.10999,3.23181 14.05838,12.28089 6.9484,9.04907 10.18021,16.48224 l 3.23181,7.43317 q 4.20135,12.28088 14.21997,19.87564 10.01862,7.59476 21.65314,9.69543 11.63452,2.10068 22.46109,2.26227 10.82657,0.16159 17.93656,-1.13113 l 7.43316,-1.29273 q 0,12.28089 0.16159,28.60154 0.16159,16.32065 0.16159,17.61337 0,5.81726 -4.20135,9.69544 -4.20136,3.87817 -12.92725,2.26226 -74.97803,-24.88495 -122.32407,-89.68277 -47.34604,-64.79784 -47.34604,-145.91631 0,-67.54488 33.28766,-124.58635 33.28766,-57.04148 90.32913,-90.32914 57.04148,-33.28766 124.58635,-33.28766 z M 244.64985,765.4995 q 0.96954,-2.26227 -2.26227,-3.87817 -3.23181,-0.96954 -4.20136,0.64636 -0.96954,2.26227 2.26227,3.87818 2.90863,1.93908 4.20136,-0.64637 z m 10.01861,10.98816 q 2.26227,-1.6159 -0.64636,-5.1709 -3.23181,-2.90863 -5.1709,-0.96954 -2.26227,1.61591 0.64636,5.1709 3.23182,3.23182 5.1709,0.96954 z m 9.69544,14.54317 q 2.90863,-2.26227 0,-6.14045 -2.58545,-4.20135 -5.49408,-1.93908 -2.90863,1.6159 0,5.81726 2.90863,4.20135 5.49408,2.26227 z m 13.57361,13.5736 q 2.58545,-2.58544 -1.29273,-6.14044 -3.87817,-3.87817 -6.46362,-0.96954 -2.90863,2.58545 1.29272,6.14044 3.87818,3.87817 6.46363,0.96954 z m 18.42133,8.07953 q 0.96954,-3.55499 -4.20136,-5.1709 -4.84772,-1.29272 -6.14044,2.26227 -1.29273,3.555 4.20135,4.84772 4.84772,1.93909 6.14045,-1.93909 z m 20.36041,1.61591 q 0,-4.20136 -5.49408,-3.55499 -5.1709,0 -5.1709,3.55499 0,4.20135 5.49408,3.55499 5.1709,0 5.1709,-3.55499 z m 18.74451,-3.23181 q -0.64637,-3.555 -5.81726,-2.90863 -5.1709,0.96954 -4.52454,4.84771 0.64636,3.87818 5.81726,2.58545 5.1709,-1.29272 4.52454,-4.52453 z"
       inkscape:connector-curvature="0"
       style="fill:#ffffff" />
  </g>
</svg>
